<mxfile host="65bd71144e" modified="2021-01-19T14:04:45.902Z" agent="5.0 (Macintosh; Intel Mac OS X 10_15_7) AppleWebKit/537.36 (KHTML, like Gecko) Code/1.52.1 Chrome/83.0.4103.122 Electron/9.3.5 Safari/537.36" version="14.2.4" etag="bvuoAzcqgeQFy5N64gdc" type="embed">
    <diagram id="tTFj6GEiBFvoAYwNg-9H" name="Page-1">
        <mxGraphModel dx="792" dy="1092" grid="1" gridSize="10" guides="1" tooltips="1" connect="1" arrows="1" fold="1" page="1" pageScale="1" pageWidth="850" pageHeight="1100" math="0" shadow="0">
            <root>
                <mxCell id="0"/>
                <mxCell id="1" parent="0"/>
                <mxCell id="2" value="" style="rounded=0;whiteSpace=wrap;html=1;" vertex="1" parent="1">
                    <mxGeometry x="30" y="130" width="120" height="440" as="geometry"/>
                </mxCell>
                <mxCell id="3" value="Mojaloop Switch" style="text;html=1;strokeColor=none;fillColor=none;align=center;verticalAlign=middle;whiteSpace=wrap;rounded=0;" vertex="1" parent="1">
                    <mxGeometry x="70" y="100" width="40" height="20" as="geometry"/>
                </mxCell>
                <mxCell id="4" value="" style="rounded=0;whiteSpace=wrap;html=1;" vertex="1" parent="1">
                    <mxGeometry x="320" y="130" width="120" height="190" as="geometry"/>
                </mxCell>
                <mxCell id="5" value="SDK&lt;br&gt;Scheme Adapter" style="text;html=1;strokeColor=none;fillColor=none;align=center;verticalAlign=middle;whiteSpace=wrap;rounded=0;" vertex="1" parent="1">
                    <mxGeometry x="330" y="100" width="100" height="20" as="geometry"/>
                </mxCell>
                <mxCell id="8" value="" style="group;fontStyle=4" vertex="1" connectable="0" parent="1">
                    <mxGeometry x="320" y="150" width="280" height="420" as="geometry"/>
                </mxCell>
                <mxCell id="7" value="" style="rounded=0;whiteSpace=wrap;html=1;" vertex="1" parent="8">
                    <mxGeometry y="210" width="210" height="210" as="geometry"/>
                </mxCell>
                <mxCell id="18" value="" style="group" vertex="1" connectable="0" parent="8">
                    <mxGeometry x="58" y="-20" width="270" height="440" as="geometry"/>
                </mxCell>
                <mxCell id="6" value="" style="rounded=0;whiteSpace=wrap;html=1;" vertex="1" parent="18">
                    <mxGeometry x="150" y="120" width="120" height="320" as="geometry"/>
                </mxCell>
                <mxCell id="11" value="Outgoing" style="text;html=1;strokeColor=none;fillColor=none;align=center;verticalAlign=middle;whiteSpace=wrap;rounded=0;" vertex="1" parent="18">
                    <mxGeometry x="212" y="130" width="40" height="20" as="geometry"/>
                </mxCell>
                <mxCell id="15" value="Ingoing" style="text;html=1;strokeColor=none;fillColor=none;align=center;verticalAlign=middle;whiteSpace=wrap;rounded=0;" vertex="1" parent="18">
                    <mxGeometry x="-37" y="240" width="40" height="20" as="geometry"/>
                </mxCell>
                <mxCell id="9" value="Thirdparty&lt;br&gt;Scheme Adapter" style="text;html=1;strokeColor=none;fillColor=none;align=center;verticalAlign=middle;whiteSpace=wrap;rounded=0;" vertex="1" parent="18">
                    <mxGeometry x="160" y="90" width="100" height="20" as="geometry"/>
                </mxCell>
                <mxCell id="21" value="sync&lt;br&gt;API" style="text;html=1;strokeColor=none;fillColor=none;align=center;verticalAlign=middle;whiteSpace=wrap;rounded=0;" vertex="1" parent="18">
                    <mxGeometry x="82" y="110" width="40" height="20" as="geometry"/>
                </mxCell>
                <mxCell id="10" value="Outgoing" style="text;html=1;strokeColor=none;fillColor=none;align=center;verticalAlign=middle;whiteSpace=wrap;rounded=0;" vertex="1" parent="1">
                    <mxGeometry x="388" y="140" width="40" height="20" as="geometry"/>
                </mxCell>
                <mxCell id="14" value="Ingoing" style="text;html=1;strokeColor=none;fillColor=none;align=center;verticalAlign=middle;whiteSpace=wrap;rounded=0;" vertex="1" parent="1">
                    <mxGeometry x="333" y="140" width="40" height="20" as="geometry"/>
                </mxCell>
                <mxCell id="19" value="" style="group" vertex="1" connectable="0" parent="1">
                    <mxGeometry x="710" y="190" width="100" height="100" as="geometry"/>
                </mxCell>
                <mxCell id="12" value="" style="shape=actor;whiteSpace=wrap;html=1;" vertex="1" parent="19">
                    <mxGeometry x="30" width="40" height="60" as="geometry"/>
                </mxCell>
                <mxCell id="13" value="PISP / DFSP" style="text;html=1;strokeColor=none;fillColor=none;align=center;verticalAlign=middle;whiteSpace=wrap;rounded=0;" vertex="1" parent="19">
                    <mxGeometry y="80" width="100" height="20" as="geometry"/>
                </mxCell>
                <mxCell id="20" value="" style="endArrow=classic;startArrow=classic;html=1;exitX=1;exitY=0.75;exitDx=0;exitDy=0;" edge="1" parent="1">
                    <mxGeometry width="50" height="50" relative="1" as="geometry">
                        <mxPoint x="443" y="272.5" as="sourcePoint"/>
                        <mxPoint x="523" y="273" as="targetPoint"/>
                    </mxGeometry>
                </mxCell>
                <mxCell id="22" value="" style="endArrow=classic;startArrow=classic;html=1;" edge="1" parent="1">
                    <mxGeometry width="50" height="50" relative="1" as="geometry">
                        <mxPoint x="310" y="388" as="sourcePoint"/>
                        <mxPoint x="160" y="388.33333333333326" as="targetPoint"/>
                    </mxGeometry>
                </mxCell>
                <mxCell id="25" value="Thirdparty API" style="text;html=1;strokeColor=none;fillColor=none;align=center;verticalAlign=middle;whiteSpace=wrap;rounded=0;" vertex="1" parent="1">
                    <mxGeometry x="210" y="354" width="40" height="20" as="geometry"/>
                </mxCell>
                <mxCell id="26" value="DFSP API" style="text;html=1;strokeColor=none;fillColor=none;align=center;verticalAlign=middle;whiteSpace=wrap;rounded=0;" vertex="1" parent="1">
                    <mxGeometry x="210" y="167" width="40" height="20" as="geometry"/>
                </mxCell>
                <mxCell id="27" value="" style="endArrow=classic;startArrow=classic;html=1;" edge="1" parent="1">
                    <mxGeometry width="50" height="50" relative="1" as="geometry">
                        <mxPoint x="310" y="200" as="sourcePoint"/>
                        <mxPoint x="160" y="200.33333333333326" as="targetPoint"/>
                    </mxGeometry>
                </mxCell>
                <mxCell id="28" value="" style="endArrow=classic;startArrow=classic;html=1;" edge="1" parent="1">
                    <mxGeometry width="50" height="50" relative="1" as="geometry">
                        <mxPoint x="770" y="300" as="sourcePoint"/>
                        <mxPoint x="660" y="360" as="targetPoint"/>
                        <Array as="points">
                            <mxPoint x="740" y="360"/>
                        </Array>
                    </mxGeometry>
                </mxCell>
                <mxCell id="29" value="" style="endArrow=classic;startArrow=classic;html=1;" edge="1" parent="1">
                    <mxGeometry width="50" height="50" relative="1" as="geometry">
                        <mxPoint x="730" y="210" as="sourcePoint"/>
                        <mxPoint x="450" y="150" as="targetPoint"/>
                        <Array as="points">
                            <mxPoint x="620" y="150"/>
                        </Array>
                    </mxGeometry>
                </mxCell>
                <mxCell id="38" value="Thirdparty&lt;br&gt;Workflows" style="text;html=1;strokeColor=none;fillColor=none;align=center;verticalAlign=middle;whiteSpace=wrap;rounded=0;" vertex="1" parent="1">
                    <mxGeometry x="710" y="380" width="40" height="20" as="geometry"/>
                </mxCell>
                <mxCell id="40" value="DFSP&lt;br&gt;Workflows" style="text;html=1;strokeColor=none;fillColor=none;align=center;verticalAlign=middle;whiteSpace=wrap;rounded=0;" vertex="1" parent="1">
                    <mxGeometry x="560" y="115" width="40" height="20" as="geometry"/>
                </mxCell>
            </root>
        </mxGraphModel>
    </diagram>
</mxfile>